<svg width="25" height="25" viewBox="0 0 25 25" fill="none" xmlns="http://www.w3.org/2000/svg">
<path d="M20.1975 11.1816H22.1975C22.1975 6.05162 18.3245 2.18262 13.1875 2.18262V4.18262C17.2495 4.18262 20.1975 7.12562 20.1975 11.1816Z" fill="white"/>
<path d="M13.1975 8.18286C15.3005 8.18286 16.1975 9.07986 16.1975 11.1829H18.1975C18.1975 7.95786 16.4225 6.18286 13.1975 6.18286V8.18286ZM16.6195 13.6259C16.4274 13.4512 16.1749 13.3581 15.9154 13.3661C15.6558 13.3741 15.4095 13.4827 15.2285 13.6689L12.8355 16.1299C12.2595 16.0199 11.1015 15.6589 9.90955 14.4699C8.71755 13.2769 8.35655 12.1159 8.24955 11.5439L10.7085 9.14986C10.895 8.96898 11.0037 8.72268 11.0117 8.46306C11.0197 8.20345 10.9264 7.9509 10.7515 7.75886L7.05655 3.69586C6.88159 3.50321 6.63843 3.38636 6.3787 3.37012C6.11897 3.35387 5.86315 3.43951 5.66555 3.60886L3.49555 5.46986C3.32266 5.64337 3.21947 5.87431 3.20555 6.11886C3.19055 6.36886 2.90455 12.2909 7.49655 16.8849C11.5025 20.8899 16.5205 21.1829 17.9025 21.1829C18.1045 21.1829 18.2285 21.1769 18.2615 21.1749C18.5061 21.1612 18.7369 21.0575 18.9095 20.8839L20.7695 18.7129C20.939 18.5154 21.0248 18.2596 21.0088 17.9999C20.9927 17.7402 20.876 17.497 20.6835 17.3219L16.6195 13.6259Z" fill="white"/>
</svg>
