<svg width="32" height="32" viewBox="0 0 32 32" fill="none" xmlns="http://www.w3.org/2000/svg">
<path fill-rule="evenodd" clip-rule="evenodd" d="M16 21.3337C15.264 21.3337 14.6667 20.7363 14.6667 20.0003C14.6667 19.2643 15.264 18.667 16 18.667C16.736 18.667 17.3334 19.2643 17.3334 20.0003C17.3334 20.7363 16.736 21.3337 16 21.3337ZM16 16.0003C13.7947 16.0003 12 17.795 12 20.0003C12 22.2057 13.7947 24.0003 16 24.0003C18.2054 24.0003 20 22.2057 20 20.0003C20 17.795 18.2054 16.0003 16 16.0003ZM24 25.3337C24 26.0697 23.4027 26.667 22.6667 26.667H9.33337C8.59737 26.667 8.00004 26.0697 8.00004 25.3337V14.667C8.00004 13.931 8.59737 13.3337 9.33337 13.3337H10.6667H13.3334H18.6667H21.3334H22.6667C23.4027 13.3337 24 13.931 24 14.667V25.3337ZM13.3334 8.14833C13.3334 6.59633 14.5294 5.33366 16 5.33366C17.4707 5.33366 18.6667 6.59633 18.6667 8.14833V10.667H13.3334V8.14833ZM22.6667 10.667H21.3334V8.14833C21.3334 5.12699 18.9414 2.66699 16 2.66699C13.0587 2.66699 10.6667 5.12699 10.6667 8.14833V10.667H9.33337C7.12804 10.667 5.33337 12.4617 5.33337 14.667V25.3337C5.33337 27.539 7.12804 29.3337 9.33337 29.3337H22.6667C24.872 29.3337 26.6667 27.539 26.6667 25.3337V14.667C26.6667 12.4617 24.872 10.667 22.6667 10.667Z" fill="#03133D"/>
<mask id="mask0_184_342" style="mask-type:luminance" maskUnits="userSpaceOnUse" x="5" y="2" width="22" height="28">
<path fill-rule="evenodd" clip-rule="evenodd" d="M16 21.3337C15.264 21.3337 14.6667 20.7363 14.6667 20.0003C14.6667 19.2643 15.264 18.667 16 18.667C16.736 18.667 17.3334 19.2643 17.3334 20.0003C17.3334 20.7363 16.736 21.3337 16 21.3337ZM16 16.0003C13.7947 16.0003 12 17.795 12 20.0003C12 22.2057 13.7947 24.0003 16 24.0003C18.2054 24.0003 20 22.2057 20 20.0003C20 17.795 18.2054 16.0003 16 16.0003ZM24 25.3337C24 26.0697 23.4027 26.667 22.6667 26.667H9.33337C8.59737 26.667 8.00004 26.0697 8.00004 25.3337V14.667C8.00004 13.931 8.59737 13.3337 9.33337 13.3337H10.6667H13.3334H18.6667H21.3334H22.6667C23.4027 13.3337 24 13.931 24 14.667V25.3337ZM13.3334 8.14833C13.3334 6.59633 14.5294 5.33366 16 5.33366C17.4707 5.33366 18.6667 6.59633 18.6667 8.14833V10.667H13.3334V8.14833ZM22.6667 10.667H21.3334V8.14833C21.3334 5.12699 18.9414 2.66699 16 2.66699C13.0587 2.66699 10.6667 5.12699 10.6667 8.14833V10.667H9.33337C7.12804 10.667 5.33337 12.4617 5.33337 14.667V25.3337C5.33337 27.539 7.12804 29.3337 9.33337 29.3337H22.6667C24.872 29.3337 26.6667 27.539 26.6667 25.3337V14.667C26.6667 12.4617 24.872 10.667 22.6667 10.667Z" fill="white"/>
</mask>
<g mask="url(#mask0_184_342)">
<rect width="32" height="32" fill="white"/>
</g>
</svg>
