<svg width="25" height="25" viewBox="0 0 25 25" fill="none" xmlns="http://www.w3.org/2000/svg">
<path d="M12.1973 1.68262C10.01 1.6852 7.91311 2.55522 6.36649 4.10184C4.81988 5.64845 3.94985 7.74537 3.94727 9.93262C3.94465 11.72 4.52851 13.459 5.60927 14.8826C5.60927 14.8826 5.83427 15.1789 5.87102 15.2216L12.1973 22.6826L18.5265 15.2179C18.5595 15.1781 18.7853 14.8826 18.7853 14.8826L18.786 14.8804C19.8663 13.4573 20.4498 11.7192 20.4473 9.93262C20.4447 7.74537 19.5747 5.64845 18.0281 4.10184C16.4814 2.55522 14.3845 1.6852 12.1973 1.68262ZM12.1973 12.9326C11.6039 12.9326 11.0239 12.7567 10.5306 12.427C10.0372 12.0974 9.6527 11.6288 9.42564 11.0807C9.19857 10.5325 9.13916 9.92929 9.25492 9.34735C9.37067 8.7654 9.6564 8.23085 10.076 7.8113C10.4955 7.39174 11.0301 7.10602 11.612 6.99026C12.1939 6.87451 12.7971 6.93392 13.3453 7.16098C13.8935 7.38804 14.362 7.77256 14.6917 8.26591C15.0213 8.75925 15.1973 9.33927 15.1973 9.93262C15.1963 10.728 14.8799 11.4904 14.3175 12.0528C13.7551 12.6152 12.9926 12.9316 12.1973 12.9326Z" fill="white"/>
</svg>
