<svg width="16" height="16" viewBox="0 0 16 16" fill="none" xmlns="http://www.w3.org/2000/svg">
<path fill-rule="evenodd" clip-rule="evenodd" d="M11.3733 10.9029C11.3109 10.9651 11.2262 11.0001 11.138 11.0001C11.0498 11.0001 10.9651 10.9651 10.9027 10.9029L8 8.00019L10.9027 5.09752C10.9337 5.06657 10.9704 5.04203 11.0109 5.0253C11.0514 5.00857 11.0948 4.99997 11.1386 5C11.1824 5.00003 11.2257 5.00869 11.2662 5.02548C11.3066 5.04227 11.3434 5.06686 11.3743 5.09785C11.4053 5.12884 11.4298 5.16563 11.4466 5.2061C11.4633 5.24658 11.4719 5.28996 11.4719 5.33375C11.4718 5.37755 11.4632 5.42092 11.4464 5.46137C11.4296 5.50182 11.405 5.53857 11.374 5.56952L8.94267 8.00019L11.374 10.4309C11.405 10.4618 11.4297 10.4986 11.4465 10.5391C11.4633 10.5796 11.4719 10.623 11.4719 10.6669C11.4719 10.7107 11.4633 10.7541 11.4465 10.7946C11.4297 10.8351 11.405 10.8719 11.374 10.9029" fill="black"/>
<path fill-rule="evenodd" clip-rule="evenodd" d="M7.90268 10.9031C7.84017 10.9656 7.7554 11.0007 7.66702 11.0007C7.57863 11.0007 7.49386 10.9656 7.43135 10.9031L4.52802 8.00042L7.43002 5.09775C7.46101 5.06676 7.4978 5.04218 7.53829 5.02541C7.57879 5.00863 7.62219 5 7.66602 5C7.70984 5 7.75324 5.00863 7.79374 5.02541C7.83423 5.04218 7.87102 5.06676 7.90202 5.09775C7.93301 5.12875 7.95759 5.16554 7.97436 5.20603C7.99114 5.24653 7.99977 5.28993 7.99977 5.33375C7.99977 5.37758 7.99114 5.42098 7.97436 5.46148C7.95759 5.50197 7.93301 5.53876 7.90202 5.56975L5.47135 8.00042L7.90268 10.4311C7.93372 10.4621 7.95835 10.4988 7.97516 10.5393C7.99196 10.5798 8.00061 10.6232 8.00061 10.6671C8.00061 10.7109 7.99196 10.7543 7.97516 10.7948C7.95835 10.8353 7.93372 10.8721 7.90268 10.9031Z" fill="black"/>
</svg>
