<svg width="14" height="11" viewBox="0 0 14 11" fill="none" xmlns="http://www.w3.org/2000/svg">
<g clip-path="url(#clip0_204_224)">
<path d="M5.40637 10.5593C5.02507 10.5593 4.66393 10.4139 4.43252 10.1632L1.3006 6.78163C1.20377 6.6772 1.13308 6.55819 1.09257 6.43142C1.05206 6.30465 1.04252 6.17259 1.0645 6.04281C1.08648 5.91302 1.13955 5.78805 1.22067 5.67503C1.30179 5.56201 1.40937 5.46317 1.53727 5.38415C1.66513 5.3048 1.81088 5.24685 1.96619 5.21362C2.1215 5.18039 2.28331 5.17254 2.44235 5.1905C2.60138 5.20847 2.75451 5.25191 2.89296 5.31832C3.03141 5.38474 3.15247 5.47283 3.24918 5.57755L5.30995 7.80091L10.4912 1.00189C10.6631 0.777408 10.9369 0.617781 11.2525 0.558026C11.5682 0.498271 11.9 0.543267 12.1751 0.683144C12.7475 0.973958 12.9237 1.58997 12.566 2.05842L6.44421 10.088C6.3397 10.2257 6.19566 10.3405 6.02458 10.4224C5.8535 10.5042 5.66054 10.5508 5.46247 10.5579C5.44318 10.5593 5.42565 10.5593 5.40637 10.5593Z" fill="white"/>
</g>
<defs>
<clipPath id="clip0_204_224">
<rect width="12.4336" height="10.4282" fill="white" transform="translate(0.685303 0.332031)"/>
</clipPath>
</defs>
</svg>
