<svg width="13" height="11" viewBox="0 0 13 11" fill="none" xmlns="http://www.w3.org/2000/svg">
<g clip-path="url(#clip0_204_333)">
<path d="M5.24182 10.5593C4.86052 10.5593 4.49938 10.4139 4.26797 10.1632L1.13605 6.78163C1.03922 6.6772 0.968531 6.55819 0.928019 6.43142C0.887506 6.30465 0.877967 6.17259 0.899947 6.04281C0.921927 5.91302 0.974994 5.78805 1.05612 5.67503C1.13724 5.56201 1.24482 5.46317 1.37272 5.38415C1.50057 5.3048 1.64633 5.24685 1.80164 5.21362C1.95695 5.18039 2.11876 5.17254 2.2778 5.1905C2.43683 5.20847 2.58996 5.25191 2.72841 5.31832C2.86686 5.38474 2.98791 5.47283 3.08463 5.57755L5.1454 7.80091L10.3267 1.00189C10.4985 0.777408 10.7723 0.617781 11.088 0.558026C11.4036 0.498271 11.7354 0.543267 12.0105 0.683144C12.5829 0.973958 12.7591 1.58997 12.4015 2.05842L6.27966 10.088C6.17515 10.2257 6.03111 10.3405 5.86003 10.4224C5.68894 10.5042 5.49599 10.5508 5.29792 10.5579C5.27863 10.5593 5.2611 10.5593 5.24182 10.5593Z" fill="#68718B"/>
</g>
<defs>
<clipPath id="clip0_204_333">
<rect width="12.4336" height="10.4282" fill="white" transform="translate(0.520752 0.332031)"/>
</clipPath>
</defs>
</svg>
