<svg width="32" height="32" viewBox="0 0 32 32" fill="none" xmlns="http://www.w3.org/2000/svg">
<path fill-rule="evenodd" clip-rule="evenodd" d="M19.4892 26.0697C20.8879 24.0723 22.3426 21.135 22.6332 17.3337H26.5732C26.0626 21.403 23.2546 24.7603 19.4892 26.0697ZM5.42541 17.3337H9.41475C9.68941 21.1497 11.1254 24.075 12.5427 26.0817C8.76008 24.779 5.93875 21.415 5.42541 17.3337ZM12.5841 5.9056C11.1814 7.90293 9.71342 10.8496 9.42008 14.6669H5.42541C5.94008 10.5709 8.78141 7.19627 12.5841 5.9056ZM12.1054 14.667C12.5134 10.3043 14.7454 7.26696 16.0348 5.86296C17.3681 7.29096 19.5654 10.3003 19.9454 14.667H12.1054ZM12.1067 17.3337H19.9494C19.5414 21.703 17.3041 24.7403 16.0161 26.1443C14.6201 24.6643 12.4787 21.6963 12.1067 17.3337ZM26.5732 14.6671H22.6372C22.3638 10.8684 20.9438 7.9524 19.5332 5.94841C23.2772 7.2684 26.0652 10.6137 26.5732 14.6671ZM29.3333 16.0003C29.3333 8.66166 23.372 2.69099 16.0373 2.66966C16.032 2.66966 16.0266 2.66833 16.02 2.66833C16.0146 2.66833 16.0066 2.66699 16 2.66699C8.64796 2.66699 2.66663 8.64966 2.66663 16.0003C2.66663 23.3523 8.64796 29.3337 16 29.3337C16.008 29.3337 16.0146 29.3323 16.02 29.3323C16.0226 29.3323 16.024 29.3337 16.0266 29.3337C16.0306 29.3337 16.0346 29.331 16.0373 29.331C23.372 29.311 29.3333 23.339 29.3333 16.0003Z" fill="#03133D"/>
<mask id="mask0_184_464" style="mask-type:luminance" maskUnits="userSpaceOnUse" x="2" y="2" width="28" height="28">
<path fill-rule="evenodd" clip-rule="evenodd" d="M19.4892 26.0697C20.8879 24.0723 22.3426 21.135 22.6332 17.3337H26.5732C26.0626 21.403 23.2546 24.7603 19.4892 26.0697ZM5.42541 17.3337H9.41475C9.68941 21.1497 11.1254 24.075 12.5427 26.0817C8.76008 24.779 5.93875 21.415 5.42541 17.3337ZM12.5841 5.9056C11.1814 7.90293 9.71342 10.8496 9.42008 14.6669H5.42541C5.94008 10.5709 8.78141 7.19627 12.5841 5.9056ZM12.1054 14.667C12.5134 10.3043 14.7454 7.26696 16.0348 5.86296C17.3681 7.29096 19.5654 10.3003 19.9454 14.667H12.1054ZM12.1067 17.3337H19.9494C19.5414 21.703 17.3041 24.7403 16.0161 26.1443C14.6201 24.6643 12.4787 21.6963 12.1067 17.3337ZM26.5732 14.6671H22.6372C22.3638 10.8684 20.9438 7.9524 19.5332 5.94841C23.2772 7.2684 26.0652 10.6137 26.5732 14.6671ZM29.3333 16.0003C29.3333 8.66166 23.372 2.69099 16.0373 2.66966C16.032 2.66966 16.0266 2.66833 16.02 2.66833C16.0146 2.66833 16.0066 2.66699 16 2.66699C8.64796 2.66699 2.66663 8.64966 2.66663 16.0003C2.66663 23.3523 8.64796 29.3337 16 29.3337C16.008 29.3337 16.0146 29.3323 16.02 29.3323C16.0226 29.3323 16.024 29.3337 16.0266 29.3337C16.0306 29.3337 16.0346 29.331 16.0373 29.331C23.372 29.311 29.3333 23.339 29.3333 16.0003Z" fill="white"/>
</mask>
<g mask="url(#mask0_184_464)">
<rect width="32" height="32" fill="white"/>
</g>
</svg>
