<svg width="32" height="32" viewBox="0 0 32 32" fill="none" xmlns="http://www.w3.org/2000/svg">
<path fill-rule="evenodd" clip-rule="evenodd" d="M23.3268 18.6403C22.4388 21.4963 20.2255 23.4737 17.2802 23.9097C12.7855 24.575 8.37217 21.167 8.02283 16.6337C7.66017 11.9297 11.3708 8.00033 16.0015 8.00033C17.0722 8.00033 18.0935 8.21099 19.0268 8.59232C19.3508 8.72432 19.7175 8.61099 19.8828 8.30433L21.7962 4.77499C21.9775 4.43766 21.8468 4.00299 21.4975 3.84566C19.8215 3.08833 17.9628 2.66699 16.0055 2.66699C8.5095 2.66699 2.4575 8.84833 2.67217 16.391C2.86817 23.2723 8.54817 29.0297 15.4242 29.3217C22.8188 29.6337 28.9522 23.927 29.3242 16.6963C29.3388 16.4323 29.3335 14.895 29.3282 13.9937C29.3268 13.6257 29.0282 13.3337 28.6615 13.3337H16.6628C16.2948 13.3337 15.9962 13.631 15.9962 14.0003V17.9737C15.9962 18.3403 16.2948 18.6403 16.6628 18.6403H23.3268Z" fill="#03133D"/>
<mask id="mask0_184_470" style="mask-type:luminance" maskUnits="userSpaceOnUse" x="2" y="2" width="28" height="28">
<path fill-rule="evenodd" clip-rule="evenodd" d="M23.3268 18.6403C22.4388 21.4963 20.2255 23.4737 17.2802 23.9097C12.7855 24.575 8.37217 21.167 8.02283 16.6337C7.66017 11.9297 11.3708 8.00033 16.0015 8.00033C17.0722 8.00033 18.0935 8.21099 19.0268 8.59232C19.3508 8.72432 19.7175 8.61099 19.8828 8.30433L21.7962 4.77499C21.9775 4.43766 21.8468 4.00299 21.4975 3.84566C19.8215 3.08833 17.9628 2.66699 16.0055 2.66699C8.5095 2.66699 2.4575 8.84833 2.67217 16.391C2.86817 23.2723 8.54817 29.0297 15.4242 29.3217C22.8188 29.6337 28.9522 23.927 29.3242 16.6963C29.3388 16.4323 29.3335 14.895 29.3282 13.9937C29.3268 13.6257 29.0282 13.3337 28.6615 13.3337H16.6628C16.2948 13.3337 15.9962 13.631 15.9962 14.0003V17.9737C15.9962 18.3403 16.2948 18.6403 16.6628 18.6403H23.3268Z" fill="white"/>
</mask>
<g mask="url(#mask0_184_470)">
<rect width="32" height="32" fill="white"/>
</g>
</svg>
