<svg width="32" height="32" viewBox="0 0 32 32" fill="none" xmlns="http://www.w3.org/2000/svg">
<path fill-rule="evenodd" clip-rule="evenodd" d="M3.99979 7C3.99979 5.344 5.34379 4 6.99979 4C8.65579 4 9.99979 5.344 9.99979 7C9.99979 8.656 8.65579 10 6.99979 10C5.34379 10 3.99979 8.656 3.99979 7ZM20.2005 11.2005C15.8925 11.2005 12.3991 14.6725 12.3991 18.9525V26.7992C12.3991 27.4619 12.9378 28.0005 13.6005 28.0005H16.3991C17.0618 28.0005 17.6005 27.4619 17.6005 26.7992V18.9525C17.6005 17.4379 18.9125 16.2272 20.4698 16.3832C21.8218 16.5179 22.7991 17.7539 22.7991 19.1125V26.7992C22.7991 27.4619 23.3378 28.0005 24.0005 28.0005H26.7991C27.4618 28.0005 28.0005 27.4619 28.0005 26.7992V18.9525C28.0005 14.6725 24.5071 11.2005 20.2005 11.2005ZM8.79939 12.3997H5.20072C4.53806 12.3997 3.99939 12.9371 3.99939 13.5997V26.7997C3.99939 27.4624 4.53806 27.9997 5.20072 27.9997H8.79939C9.46206 27.9997 9.99939 27.4624 9.99939 26.7997V13.5997C9.99939 12.9371 9.46206 12.3997 8.79939 12.3997Z" fill="#03133D"/>
<mask id="mask0_184_472" style="mask-type:luminance" maskUnits="userSpaceOnUse" x="3" y="4" width="26" height="25">
<path fill-rule="evenodd" clip-rule="evenodd" d="M3.99979 7C3.99979 5.344 5.34379 4 6.99979 4C8.65579 4 9.99979 5.344 9.99979 7C9.99979 8.656 8.65579 10 6.99979 10C5.34379 10 3.99979 8.656 3.99979 7ZM20.2005 11.2005C15.8925 11.2005 12.3991 14.6725 12.3991 18.9525V26.7992C12.3991 27.4619 12.9378 28.0005 13.6005 28.0005H16.3991C17.0618 28.0005 17.6005 27.4619 17.6005 26.7992V18.9525C17.6005 17.4379 18.9125 16.2272 20.4698 16.3832C21.8218 16.5179 22.7991 17.7539 22.7991 19.1125V26.7992C22.7991 27.4619 23.3378 28.0005 24.0005 28.0005H26.7991C27.4618 28.0005 28.0005 27.4619 28.0005 26.7992V18.9525C28.0005 14.6725 24.5071 11.2005 20.2005 11.2005ZM8.79939 12.3997H5.20072C4.53806 12.3997 3.99939 12.9371 3.99939 13.5997V26.7997C3.99939 27.4624 4.53806 27.9997 5.20072 27.9997H8.79939C9.46206 27.9997 9.99939 27.4624 9.99939 26.7997V13.5997C9.99939 12.9371 9.46206 12.3997 8.79939 12.3997Z" fill="white"/>
</mask>
<g mask="url(#mask0_184_472)">
<rect width="32" height="32" fill="white"/>
</g>
</svg>
