<svg width="19" height="19" viewBox="0 0 19 19" fill="none" xmlns="http://www.w3.org/2000/svg">
<path d="M11.3254 4.18614C12.1049 4.33794 12.8213 4.71844 13.3829 5.27894C13.9444 5.83945 14.3257 6.55446 14.4778 7.33246M11.3254 1C12.9449 1.17957 14.4551 1.90341 15.608 3.05268C16.7609 4.20195 17.4881 5.70833 17.67 7.3245M16.8719 13.6809V16.0705C16.8728 16.2923 16.8273 16.5119 16.7383 16.7151C16.6492 16.9184 16.5186 17.1009 16.3549 17.2508C16.1911 17.4008 15.9977 17.515 15.7872 17.586C15.5766 17.6571 15.3535 17.6835 15.1322 17.6635C12.6764 17.3972 10.3175 16.5597 8.24489 15.2182C6.31664 13.9952 4.68182 12.3635 3.45653 10.439C2.10779 8.36095 1.26844 5.99507 1.00648 3.53298C0.986534 3.31272 1.01276 3.09072 1.08349 2.88112C1.15422 2.67152 1.2679 2.47892 1.41729 2.31558C1.56669 2.15223 1.74852 2.02172 1.95122 1.93236C2.15391 1.843 2.37303 1.79674 2.59462 1.79654H4.9888C5.37611 1.79273 5.75158 1.92962 6.04525 2.18169C6.33891 2.43375 6.53072 2.7838 6.58493 3.16658C6.68598 3.93131 6.87339 4.68217 7.14357 5.40484C7.25094 5.68994 7.27418 5.99979 7.21053 6.29767C7.14688 6.59554 6.99901 6.86897 6.78444 7.08554L5.7709 8.09714C6.90699 10.0913 8.56129 11.7424 10.5593 12.8764L11.5728 11.8648C11.7898 11.6506 12.0637 11.503 12.3622 11.4395C12.6606 11.3759 12.9711 11.3991 13.2567 11.5063C13.9808 11.776 14.7331 11.963 15.4993 12.0639C15.8869 12.1185 16.241 12.3134 16.4941 12.6115C16.7472 12.9096 16.8817 13.2902 16.8719 13.6809Z" stroke="#696F8C" stroke-linecap="round" stroke-linejoin="round"/>
</svg>
