<svg width="32" height="32" viewBox="0 0 32 32" fill="none" xmlns="http://www.w3.org/2000/svg">
<path fill-rule="evenodd" clip-rule="evenodd" d="M10.7692 26.6667C20.4306 26.6667 26.0199 19.1654 26.0199 12.0467C26.0199 11.8507 27.3932 10.672 27.9812 8.21471C28.1012 7.71604 27.6159 7.32271 27.1586 7.53204C25.9852 8.07071 24.7946 7.64404 24.2772 7.03071C22.2879 4.86138 18.9612 4.75737 16.8452 6.79737C15.4812 8.11337 14.9026 10.0734 15.3252 11.944C10.8572 12.2627 7.78924 10.1454 5.26657 7.24271C4.94124 6.86537 4.33724 7.06404 4.26924 7.56271C3.89591 10.3387 3.77858 17.088 10.4666 20.964C9.30524 22.6334 7.03191 23.6187 4.50124 24.0414C3.94124 24.136 3.80791 24.912 4.31991 25.1627C6.32524 26.1494 8.52924 26.6654 10.7692 26.6627" fill="#03133D"/>
<mask id="mask0_184_468" style="mask-type:luminance" maskUnits="userSpaceOnUse" x="4" y="5" width="24" height="22">
<path fill-rule="evenodd" clip-rule="evenodd" d="M10.7692 26.6667C20.4306 26.6667 26.0199 19.1654 26.0199 12.0467C26.0199 11.8507 27.3932 10.672 27.9812 8.21471C28.1012 7.71604 27.6159 7.32271 27.1586 7.53204C25.9852 8.07071 24.7946 7.64404 24.2772 7.03071C22.2879 4.86138 18.9612 4.75737 16.8452 6.79737C15.4812 8.11337 14.9026 10.0734 15.3252 11.944C10.8572 12.2627 7.78924 10.1454 5.26657 7.24271C4.94124 6.86537 4.33724 7.06404 4.26924 7.56271C3.89591 10.3387 3.77858 17.088 10.4666 20.964C9.30524 22.6334 7.03191 23.6187 4.50124 24.0414C3.94124 24.136 3.80791 24.912 4.31991 25.1627C6.32524 26.1494 8.52924 26.6654 10.7692 26.6627" fill="white"/>
</mask>
<g mask="url(#mask0_184_468)">
<rect width="32" height="32" fill="white"/>
</g>
</svg>
